<mxfile host="app.diagrams.net" agent="Mozilla/5.0 (Windows NT 10.0; Win64; x64) AppleWebKit/537.36 (KHTML, like Gecko) Chrome/132.0.0.0 Safari/537.36 Edg/132.0.0.0" version="26.0.8">
  <diagram name="Page-1" id="RW6xu8LS1FPuIPL8EdnZ">
    <mxGraphModel dx="1042" dy="661" grid="1" gridSize="10" guides="1" tooltips="1" connect="1" arrows="1" fold="1" page="1" pageScale="1" pageWidth="850" pageHeight="1100" math="0" shadow="0">
      <root>
        <mxCell id="0" />
        <mxCell id="1" parent="0" />
        <mxCell id="n4YqthxXU5e505KLDRFM-9" style="edgeStyle=orthogonalEdgeStyle;rounded=0;orthogonalLoop=1;jettySize=auto;html=1;entryX=0.5;entryY=0;entryDx=0;entryDy=0;" edge="1" parent="1" source="n4YqthxXU5e505KLDRFM-1" target="n4YqthxXU5e505KLDRFM-3">
          <mxGeometry relative="1" as="geometry" />
        </mxCell>
        <mxCell id="n4YqthxXU5e505KLDRFM-1" value="" style="html=1;verticalLabelPosition=bottom;align=center;labelBackgroundColor=#ffffff;verticalAlign=top;strokeWidth=2;strokeColor=#0080F0;shadow=0;dashed=0;shape=mxgraph.ios7.icons.user;" vertex="1" parent="1">
          <mxGeometry x="285" y="90" width="70" height="70" as="geometry" />
        </mxCell>
        <mxCell id="n4YqthxXU5e505KLDRFM-11" style="edgeStyle=orthogonalEdgeStyle;rounded=0;orthogonalLoop=1;jettySize=auto;html=1;" edge="1" parent="1" source="n4YqthxXU5e505KLDRFM-2" target="n4YqthxXU5e505KLDRFM-4">
          <mxGeometry relative="1" as="geometry" />
        </mxCell>
        <mxCell id="n4YqthxXU5e505KLDRFM-2" value="" style="image;aspect=fixed;html=1;points=[];align=center;fontSize=12;image=img/lib/azure2/management_governance/Resources_Provider.svg;" vertex="1" parent="1">
          <mxGeometry x="90.39" y="130" width="65.22" height="73.38" as="geometry" />
        </mxCell>
        <mxCell id="n4YqthxXU5e505KLDRFM-20" style="edgeStyle=orthogonalEdgeStyle;rounded=0;orthogonalLoop=1;jettySize=auto;html=1;exitX=1;exitY=0.5;exitDx=0;exitDy=0;" edge="1" parent="1" source="n4YqthxXU5e505KLDRFM-3" target="n4YqthxXU5e505KLDRFM-17">
          <mxGeometry relative="1" as="geometry">
            <Array as="points">
              <mxPoint x="440" y="335" />
            </Array>
          </mxGeometry>
        </mxCell>
        <mxCell id="n4YqthxXU5e505KLDRFM-3" value="&lt;font style=&quot;font-size: 20px;&quot;&gt;Documents&lt;/font&gt;" style="rounded=0;whiteSpace=wrap;html=1;" vertex="1" parent="1">
          <mxGeometry x="260" y="305" width="120" height="60" as="geometry" />
        </mxCell>
        <mxCell id="n4YqthxXU5e505KLDRFM-13" style="edgeStyle=orthogonalEdgeStyle;rounded=0;orthogonalLoop=1;jettySize=auto;html=1;entryX=0.5;entryY=1;entryDx=0;entryDy=0;" edge="1" parent="1" source="n4YqthxXU5e505KLDRFM-4" target="n4YqthxXU5e505KLDRFM-7">
          <mxGeometry relative="1" as="geometry">
            <Array as="points">
              <mxPoint x="123" y="500" />
              <mxPoint x="340" y="500" />
              <mxPoint x="340" y="450" />
            </Array>
          </mxGeometry>
        </mxCell>
        <mxCell id="n4YqthxXU5e505KLDRFM-4" value="" style="sketch=0;pointerEvents=1;shadow=0;dashed=0;html=1;strokeColor=none;fillColor=#DF8C42;labelPosition=center;verticalLabelPosition=bottom;verticalAlign=top;align=center;outlineConnect=0;shape=mxgraph.veeam2.aws_s3;" vertex="1" parent="1">
          <mxGeometry x="76" y="280" width="94" height="110" as="geometry" />
        </mxCell>
        <mxCell id="n4YqthxXU5e505KLDRFM-5" value="" style="html=1;verticalLabelPosition=bottom;align=center;labelBackgroundColor=#ffffff;verticalAlign=top;strokeWidth=2;strokeColor=#0080F0;shadow=0;dashed=0;shape=mxgraph.ios7.icons.chat;" vertex="1" parent="1">
          <mxGeometry x="520" y="100" width="100" height="70" as="geometry" />
        </mxCell>
        <mxCell id="n4YqthxXU5e505KLDRFM-6" value="" style="html=1;verticalLabelPosition=bottom;align=center;labelBackgroundColor=#ffffff;verticalAlign=top;strokeWidth=2;strokeColor=#0080F0;shadow=0;dashed=0;shape=mxgraph.ios7.icons.chat;" vertex="1" parent="1">
          <mxGeometry x="500" y="340" width="100" height="70" as="geometry" />
        </mxCell>
        <mxCell id="n4YqthxXU5e505KLDRFM-7" value="&lt;font style=&quot;font-size: 20px;&quot;&gt;Key&lt;/font&gt;" style="rounded=0;whiteSpace=wrap;html=1;" vertex="1" parent="1">
          <mxGeometry x="300" y="390" width="70" height="60" as="geometry" />
        </mxCell>
        <mxCell id="n4YqthxXU5e505KLDRFM-10" style="edgeStyle=orthogonalEdgeStyle;rounded=0;orthogonalLoop=1;jettySize=auto;html=1;entryX=1;entryY=0.48;entryDx=0;entryDy=0;entryPerimeter=0;" edge="1" parent="1" source="n4YqthxXU5e505KLDRFM-3" target="n4YqthxXU5e505KLDRFM-2">
          <mxGeometry relative="1" as="geometry" />
        </mxCell>
        <mxCell id="n4YqthxXU5e505KLDRFM-14" value="&lt;font style=&quot;font-size: 20px;&quot;&gt;Document chat&lt;/font&gt;" style="text;html=1;align=center;verticalAlign=middle;whiteSpace=wrap;rounded=0;" vertex="1" parent="1">
          <mxGeometry x="530" y="440" width="60" height="30" as="geometry" />
        </mxCell>
        <mxCell id="n4YqthxXU5e505KLDRFM-15" value="&lt;font style=&quot;font-size: 20px;&quot;&gt;Chat&lt;/font&gt;" style="text;html=1;align=center;verticalAlign=middle;whiteSpace=wrap;rounded=0;" vertex="1" parent="1">
          <mxGeometry x="540" y="190" width="60" height="30" as="geometry" />
        </mxCell>
        <mxCell id="n4YqthxXU5e505KLDRFM-26" style="edgeStyle=orthogonalEdgeStyle;rounded=0;orthogonalLoop=1;jettySize=auto;html=1;exitX=0;exitY=0.75;exitDx=0;exitDy=0;exitPerimeter=0;entryX=1;entryY=0.75;entryDx=0;entryDy=0;" edge="1" parent="1" source="n4YqthxXU5e505KLDRFM-16" target="n4YqthxXU5e505KLDRFM-24">
          <mxGeometry relative="1" as="geometry" />
        </mxCell>
        <mxCell id="n4YqthxXU5e505KLDRFM-16" value="" style="sketch=0;points=[[0,0,0],[0.25,0,0],[0.5,0,0],[0.75,0,0],[1,0,0],[0,1,0],[0.25,1,0],[0.5,1,0],[0.75,1,0],[1,1,0],[0,0.25,0],[0,0.5,0],[0,0.75,0],[1,0.25,0],[1,0.5,0],[1,0.75,0]];outlineConnect=0;fontColor=#232F3E;fillColor=#01A88D;strokeColor=#ffffff;dashed=0;verticalLabelPosition=bottom;verticalAlign=top;align=center;html=1;fontSize=12;fontStyle=0;aspect=fixed;shape=mxgraph.aws4.resourceIcon;resIcon=mxgraph.aws4.bedrock;" vertex="1" parent="1">
          <mxGeometry x="720" y="236" width="78" height="78" as="geometry" />
        </mxCell>
        <mxCell id="n4YqthxXU5e505KLDRFM-17" value="" style="html=1;verticalLabelPosition=bottom;align=center;labelBackgroundColor=#ffffff;verticalAlign=top;strokeWidth=2;strokeColor=#0080F0;shadow=0;dashed=0;shape=mxgraph.ios7.icons.add;" vertex="1" parent="1">
          <mxGeometry x="425" y="365" width="30" height="30" as="geometry" />
        </mxCell>
        <mxCell id="n4YqthxXU5e505KLDRFM-22" style="edgeStyle=orthogonalEdgeStyle;rounded=0;orthogonalLoop=1;jettySize=auto;html=1;exitX=1;exitY=0.5;exitDx=0;exitDy=0;entryX=0.513;entryY=0.967;entryDx=0;entryDy=0;entryPerimeter=0;" edge="1" parent="1" source="n4YqthxXU5e505KLDRFM-7" target="n4YqthxXU5e505KLDRFM-17">
          <mxGeometry relative="1" as="geometry" />
        </mxCell>
        <mxCell id="n4YqthxXU5e505KLDRFM-23" style="edgeStyle=orthogonalEdgeStyle;rounded=0;orthogonalLoop=1;jettySize=auto;html=1;entryX=0.028;entryY=0.566;entryDx=0;entryDy=0;entryPerimeter=0;" edge="1" parent="1" source="n4YqthxXU5e505KLDRFM-17" target="n4YqthxXU5e505KLDRFM-6">
          <mxGeometry relative="1" as="geometry" />
        </mxCell>
        <mxCell id="n4YqthxXU5e505KLDRFM-27" style="edgeStyle=orthogonalEdgeStyle;rounded=0;orthogonalLoop=1;jettySize=auto;html=1;" edge="1" parent="1" source="n4YqthxXU5e505KLDRFM-24" target="n4YqthxXU5e505KLDRFM-16">
          <mxGeometry relative="1" as="geometry">
            <Array as="points">
              <mxPoint x="630" y="275" />
              <mxPoint x="630" y="275" />
            </Array>
          </mxGeometry>
        </mxCell>
        <mxCell id="n4YqthxXU5e505KLDRFM-24" value="&lt;font style=&quot;font-size: 20px;&quot;&gt;Message&lt;/font&gt;" style="rounded=0;whiteSpace=wrap;html=1;" vertex="1" parent="1">
          <mxGeometry x="480" y="249" width="120" height="60" as="geometry" />
        </mxCell>
        <mxCell id="n4YqthxXU5e505KLDRFM-28" value="anthropic.claude-3-5-sonnet-20240620-v1:0" style="text;html=1;align=center;verticalAlign=middle;whiteSpace=wrap;rounded=0;" vertex="1" parent="1">
          <mxGeometry x="674" y="140" width="170" height="30" as="geometry" />
        </mxCell>
        <mxCell id="n4YqthxXU5e505KLDRFM-29" style="edgeStyle=orthogonalEdgeStyle;rounded=0;orthogonalLoop=1;jettySize=auto;html=1;entryX=0.5;entryY=0;entryDx=0;entryDy=0;entryPerimeter=0;" edge="1" parent="1" source="n4YqthxXU5e505KLDRFM-28" target="n4YqthxXU5e505KLDRFM-16">
          <mxGeometry relative="1" as="geometry" />
        </mxCell>
        <mxCell id="n4YqthxXU5e505KLDRFM-30" value="Reply" style="text;html=1;align=center;verticalAlign=middle;resizable=0;points=[];autosize=1;strokeColor=none;fillColor=none;" vertex="1" parent="1">
          <mxGeometry x="640" y="298" width="50" height="30" as="geometry" />
        </mxCell>
      </root>
    </mxGraphModel>
  </diagram>
</mxfile>
